<svg width="24" height="24" viewBox="0 0 24 24" fill="none" xmlns="http://www.w3.org/2000/svg">
<g clip-path="url(#clip0_286_5366)">
<path d="M12 22C14.6715 22 17.1825 20.96 19.0715 19.071L17.657 17.657C16.146 19.168 14.137 20 12 20C7.589 20 4 16.411 4 12C4 7.589 7.589 4 12 4C16.411 4 20 7.589 20 12C20 13.103 19.103 14 18 14C16.897 14 16 13.103 16 12V8H14V8.5395C13.411 8.1985 12.7295 8 12 8C9.791 8 8 9.791 8 12C8 14.209 9.791 16 12 16C13.197 16 14.268 15.4715 15.0015 14.6385C15.735 15.471 16.8055 16 18 16C20.2055 16 22 14.2055 22 12C22 6.486 17.514 2 12 2C6.486 2 2 6.486 2 12C2 17.514 6.486 22 12 22ZM12 14C10.897 14 10 13.103 10 12C10 10.897 10.897 10 12 10C13.103 10 14 10.897 14 12C14 13.103 13.103 14 12 14Z" fill="#D4A017"/>
</g>
<defs>
<clipPath id="clip0_286_5366">
<rect width="24" height="24" fill="white"/>
</clipPath>
</defs>
</svg>
