<svg width="127" height="128" viewBox="0 0 127 128" fill="none" xmlns="http://www.w3.org/2000/svg">
<g clip-path="url(#clip0_286_241)">
<path d="M63.5 127.667C98.5701 127.667 127 99.2367 127 64.1666C127 29.0965 98.5701 0.666626 63.5 0.666626C28.4299 0.666626 0 29.0965 0 64.1666C0 99.2367 28.4299 127.667 63.5 127.667Z" fill="#F2F2F2"/>
<mask id="mask0_286_241" style="mask-type:luminance" maskUnits="userSpaceOnUse" x="0" y="0" width="128" height="128">
<path d="M64 127.667C99.3462 127.667 128 99.2367 128 64.1666C128 29.0965 99.3462 0.666626 64 0.666626C28.6538 0.666626 0 29.0965 0 64.1666C0 99.2367 28.6538 127.667 64 127.667Z" fill="white"/>
</mask>
<g mask="url(#mask0_286_241)">
<path d="M58.4041 44.7698C58.4041 44.7698 60.2981 50.993 59.2159 52.8871C58.1336 54.7812 61.11 58.8402 65.9802 56.9457C70.8505 55.0512 71.1211 52.8871 71.1211 52.8871C71.1211 52.8871 69.227 49.9105 68.6859 43.6875L58.4041 44.7698Z" fill="#FFB9B9"/>
<path d="M33.6464 105.785C33.6464 105.785 23.9057 110.655 28.235 117.149C30.7514 120.924 35.5532 128.264 39.1334 133.749C42.1298 138.339 44.4278 143.349 45.9521 148.615L46.6342 150.971L49.3405 154.217L55.0225 147.723C55.0225 147.723 46.6348 132.3 46.6348 129.324C46.6348 126.348 39.8696 116.878 39.8696 116.878L46.634 112.549C46.634 112.549 39.0578 103.89 33.6464 105.785Z" fill="#FFB9B9"/>
<path d="M65.3038 122.56C65.3038 122.56 65.575 130.136 65.8449 133.112C66.0681 135.568 63.8972 142.443 64.6499 150.092C65.1093 155.04 65.0544 160.023 64.486 164.96L63.4097 174.781L71.527 175.593L74.2327 153.406C74.2327 153.406 75.8561 137.712 75.0445 132.571L75.3149 121.749C75.3149 121.749 69.3624 119.584 65.3038 122.56Z" fill="#FFB9B9"/>
<path d="M50.828 91.038C50.828 91.038 31.8867 103.214 31.6171 107.002C31.6171 107.002 42.44 105.92 42.7097 115.39C42.7097 115.39 49.2036 112.954 50.827 112.413C52.4504 111.872 61.1089 106.19 61.1089 106.19C61.1089 106.19 64.6264 108.896 64.6264 113.225C64.6264 117.554 64.3557 125.131 64.6264 125.671C64.897 126.211 71.1202 118.366 76.2611 125.13L79.7794 106.46C79.7794 106.46 80.8617 95.0961 78.6972 94.2842L63.5449 88.6028L50.828 91.038Z" fill="#2F2E41"/>
<path d="M62.3274 48.1522C66.8104 48.1522 70.4447 44.5179 70.4447 40.0349C70.4447 35.5518 66.8104 31.9176 62.3274 31.9176C57.8443 31.9176 54.2101 35.5518 54.2101 40.0349C54.2101 44.5179 57.8443 48.1522 62.3274 48.1522Z" fill="#FFB9B9"/>
<path d="M60.2979 54.2397C60.2979 54.2397 69.4538 56.6579 70.693 52.0667C70.693 52.0667 81.9444 54.2397 83.8377 61.5452C85.731 68.8507 79.2379 86.438 79.2379 86.9791C79.2379 87.5203 81.6732 96.9905 80.0498 97.5317C78.4263 98.0728 68.6856 89.685 61.1095 91.8496C53.5333 94.0142 49.7454 92.3907 49.7454 92.3907L46.3485 63.0301C46.2159 61.9053 46.3671 60.7652 46.7884 59.7138C47.2096 58.6624 47.8874 57.7333 48.7599 57.0111C50.4556 55.6155 52.7055 54.1076 54.8867 53.6986C59.2158 52.8868 59.3958 52.4425 59.3958 52.4425L60.2979 54.2397Z" fill="#D4A017"/>
<path d="M51.6405 101.59C51.6405 101.59 54.0757 115.389 57.3226 113.496C60.5694 111.603 56.5108 101.59 56.5108 101.59H51.6405Z" fill="#FFB9B9"/>
<path d="M62.9428 103.376C62.9428 103.376 58.7234 116.739 62.4782 116.56C66.2331 116.381 67.2616 105.628 67.2616 105.628L62.9428 103.376Z" fill="#FFB9B9"/>
<path d="M55.2433 33.1564C55.2433 33.1564 57.8546 27.4987 62.8593 28.8042C67.8641 30.1097 70.6931 32.0683 70.9106 34.0267C71.128 35.9851 70.8018 38.9228 70.8018 38.9228C70.8018 38.9228 70.2577 34.8971 66.7761 35.7676C63.2945 36.6381 57.8544 35.9859 57.8544 35.9859L56.984 43.8196C56.984 43.8196 56.0047 42.4051 54.9169 43.2757C53.8291 44.1462 51.7619 34.8973 55.2433 33.1564Z" fill="#2F2E41"/>
<path d="M79.2382 61.2746C79.2382 61.2746 72.7443 78.8619 73.2851 81.0265C73.8258 83.191 73.2851 83.4617 72.4733 84.0031C71.6615 84.5444 69.4967 90.2262 69.4967 90.2262C69.4967 90.2262 61.109 104.567 61.6501 104.837C62.1912 105.108 65.9792 108.084 67.0617 107.814C68.1442 107.543 67.3324 104.026 68.9558 103.485C70.5792 102.944 76.2613 99.426 78.1553 95.0969C80.0494 90.7678 89.0099 63.8204 83.5257 60.1409C83.5261 60.1405 81.4028 58.0278 79.2382 61.2746Z" fill="#D4A017"/>
<path d="M49.2045 58.2992L49.0946 58.345C48.0725 58.7712 47.1697 59.4401 46.4643 60.2938C45.7589 61.1474 45.2723 62.1601 45.0464 63.2443C44.4557 66.0722 43.8743 70.1624 44.3338 73.9924C45.1457 80.7568 45.6868 83.7331 46.7691 85.8987C47.8514 88.0642 50.0167 98.3439 50.2868 98.8844C50.5568 99.425 51.369 103.484 51.369 103.484C51.369 103.484 55.6982 102.131 58.1334 102.672C58.1334 102.672 55.9688 98.8844 56.51 98.0726C57.0511 97.2608 55.157 85.6262 55.157 85.6262L49.2045 58.2992Z" fill="#D4A017"/>
</g>
</g>
<defs>
<clipPath id="clip0_286_241">
<rect width="127" height="127" fill="white" transform="translate(0 0.666626)"/>
</clipPath>
</defs>
</svg>
