<svg width="178" height="172" viewBox="0 0 178 172" fill="none" xmlns="http://www.w3.org/2000/svg">
<g clip-path="url(#clip0_286_209)">
<path d="M95.0554 85.6751C101.846 85.6751 107.352 80.1675 107.352 73.3735C107.352 66.5794 101.846 61.0718 95.0554 61.0718C88.2644 61.0718 82.7592 66.5794 82.7592 73.3735C82.7592 80.1675 88.2644 85.6751 95.0554 85.6751Z" fill="#D4A017"/>
<path d="M93.8365 78.0666C93.5598 78.0671 93.2905 77.9777 93.0692 77.8117L93.0554 77.8015L90.1657 75.588C89.8954 75.3808 89.7185 75.0747 89.6738 74.737C89.6291 74.3993 89.7204 74.0576 89.9275 73.7872C90.1346 73.5168 90.4406 73.3398 90.7782 73.2951C91.1157 73.2504 91.4572 73.3417 91.7275 73.5489L93.5992 74.9847L98.0224 69.2135C98.2295 68.9432 98.5355 68.7663 98.8731 68.7218C99.2106 68.6772 99.552 68.7685 99.8222 68.9758L99.7946 69.0132L99.8229 68.9764C100.093 69.1839 100.269 69.49 100.314 69.8276C100.358 70.1652 100.267 70.5067 100.061 70.7771L94.8579 77.5652C94.7375 77.7216 94.5828 77.8482 94.4057 77.9351C94.2285 78.022 94.0337 78.0672 93.8365 78.0666Z" fill="white"/>
<path d="M13.0092 92.9854L5.11558 119.98C4.8698 120.821 4.81349 121.705 4.95073 122.57C5.08796 123.435 5.4153 124.259 5.90916 124.982C6.40303 125.705 7.0511 126.309 7.80666 126.751C8.56221 127.193 9.40643 127.462 10.2784 127.539L18.8919 128.293L13.0092 92.9854Z" fill="#F2F2F2"/>
<path opacity="0.1" d="M13.0092 92.9854L5.11558 119.98C4.8698 120.821 4.81349 121.705 4.95073 122.57C5.08796 123.435 5.4153 124.259 5.90916 124.982C6.40303 125.705 7.0511 126.309 7.80666 126.751C8.56221 127.193 9.40643 127.462 10.2784 127.539L18.8919 128.293L13.0092 92.9854Z" fill="black"/>
<path d="M84.6547 88.005L74.0962 105.474L69.1248 99.1739L78.8407 83.9555C78.4955 82.1849 78.9135 80.13 80.1488 78.3551C82.31 75.2498 86.1443 74.1832 88.7133 75.9729C91.2822 77.7627 91.6125 81.7303 89.4512 84.8356C88.2159 86.6102 86.4345 87.7154 84.6549 88.0059L84.6547 88.005Z" fill="#FFB6B6"/>
<path d="M18.8288 130.355L17.5603 134.669L17.6033 139.043C17.6033 139.043 9.26372 149.078 12.3361 170.783L51.4114 170.293L46.7571 135.367L18.8288 130.355Z" fill="#090814"/>
<path d="M23.2261 70.5707C23.2263 68.5213 23.7942 66.512 24.8669 64.7661C25.9396 63.0201 27.4749 61.6057 29.3025 60.68C31.1302 59.7543 33.1785 59.3535 35.22 59.5221C37.2616 59.6907 39.2165 60.422 40.8676 61.635C42.5188 62.848 43.8016 64.4951 44.5736 66.3934C45.3456 68.2917 45.5766 70.3669 45.2409 72.3886C44.9052 74.4103 44.016 76.2993 42.672 77.846C41.3279 79.3926 39.5818 80.5363 37.6273 81.1501L35.9752 82.4819L38.9411 92.8675L35.4849 95.3136L24.5642 86.2092C24.5642 86.2092 26.9231 83.2036 28.1886 79.8131C26.6622 78.8031 25.41 77.4301 24.544 75.8172C23.6779 74.2043 23.2251 72.4018 23.2261 70.5709V70.5707Z" fill="#FFB6B6"/>
<path d="M76.6435 87.4506C72.7317 87.3909 65.4993 99.9515 65.4993 99.9515L59.5576 97.8496L47.3403 93.522L37.9762 89.6662L38.0174 89.9494C37.9805 89.8604 37.9404 89.7713 37.8963 89.6805C36.9118 87.6512 34.0523 85.2634 25.9337 85.7367L22.1101 88.7559L21.5902 89.1695C19.9503 89.0814 18.31 89.337 16.7745 89.92C15.0356 90.6193 13.297 91.9237 12.4745 94.3627C12.0483 95.6206 12.0483 98.2214 12.304 101.526C13.2289 113.489 17.539 138.923 17.539 138.923L44.7487 135.319L46.756 135.366C46.756 135.366 46.9945 132.624 47.2077 129.034C47.3399 126.928 47.4592 124.537 47.5273 122.234C47.5742 120.545 47.5869 118.908 47.5571 117.467C47.5529 117.378 47.5529 117.289 47.5486 117.199C47.4676 114.568 47.2035 112.662 46.6362 112.453C46.6362 112.453 48.3963 112.406 50.9363 112.313C57.0732 112.082 67.7703 111.566 69.2955 110.735C71.4519 109.562 82.759 93.8255 82.759 93.8255C82.759 93.8255 80.5599 87.5153 76.6435 87.4512V87.4506Z" fill="#E6E6E6"/>
<path d="M45.7166 71.3888C44.8796 67.2924 44.478 65.1931 41.4354 62.2949C40.7133 62.3971 41.6262 66.1433 37.6454 71.3619C31.8595 78.948 32.4359 71.9924 30.7246 74.3292C30.3531 74.8366 30.2728 76.6668 30.395 77.2965C30.8774 79.7846 33.733 77.355 30.7246 85.8679C30.277 86.53 29.7496 86.369 29.0778 86.3624C29.0257 86.3624 29.3671 86.2956 28.0891 86.0326C27.4791 85.9066 26.6254 85.7579 25.602 85.5854C13.713 83.5817 9.51486 68.5734 18.7034 60.7652C20.7952 58.9885 22.8461 57.6423 24.6275 57.0184C29.9933 55.1394 42.2188 56.3608 44.5667 62.4585C45.6722 65.2965 46.0671 68.3619 45.717 71.3875L45.7166 71.3888Z" fill="#010102"/>
<path d="M21.2301 95.4808C25.9132 95.4808 29.7096 91.6827 29.7096 86.9976C29.7096 82.3124 25.9132 78.5143 21.2301 78.5143C16.547 78.5143 12.7506 82.3124 12.7506 86.9976C12.7506 91.6827 16.547 95.4808 21.2301 95.4808Z" fill="#010102"/>
<path d="M67.2149 172H0.289118C0.11643 171.97 -0.0113054 171.622 -0.00017859 171.221C-0.0113054 170.824 0.116208 170.476 0.289118 170.445H67.2149C67.3671 170.489 67.4873 170.768 67.506 171.121C67.5302 171.551 67.4009 171.943 67.2149 172Z" fill="#E6E6E6"/>
<path d="M152.809 38.772C154.281 38.772 155.474 37.5786 155.474 36.1064C155.474 34.6342 154.281 33.4408 152.809 33.4408C151.338 33.4408 150.145 34.6342 150.145 36.1064C150.145 37.5786 151.338 38.772 152.809 38.772Z" fill="#D4A017"/>
<path d="M152.545 37.1232C152.485 37.1233 152.427 37.1039 152.379 37.068L152.376 37.0657L151.75 36.5862C151.721 36.5639 151.696 36.5362 151.678 36.5046C151.66 36.4729 151.648 36.438 151.643 36.4017C151.638 36.3655 151.641 36.3287 151.65 36.2933C151.66 36.258 151.676 36.2249 151.698 36.1959C151.72 36.1669 151.748 36.1425 151.78 36.1242C151.811 36.1059 151.846 36.094 151.883 36.0892C151.919 36.0844 151.956 36.0868 151.991 36.0963C152.026 36.1057 152.059 36.122 152.088 36.1442L152.494 36.4559L153.452 35.2054C153.474 35.1764 153.502 35.152 153.534 35.1338C153.565 35.1155 153.6 35.1036 153.637 35.0988C153.673 35.094 153.71 35.0965 153.745 35.1059C153.78 35.1154 153.813 35.1317 153.842 35.154C153.901 35.1989 153.939 35.2653 153.949 35.3385C153.959 35.4116 153.939 35.4856 153.894 35.5442L152.767 37.0152C152.74 37.0491 152.707 37.0766 152.669 37.0954C152.63 37.1142 152.588 37.124 152.545 37.1238V37.1232Z" fill="white"/>
<path d="M152.809 46.5639C154.281 46.5639 155.474 45.3704 155.474 43.8983C155.474 42.4261 154.281 41.2327 152.809 41.2327C151.338 41.2327 150.145 42.4261 150.145 43.8983C150.145 45.3704 151.338 46.5639 152.809 46.5639Z" fill="#D4A017"/>
<path d="M152.545 44.915C152.485 44.9151 152.427 44.8958 152.379 44.8598L152.376 44.8576L151.75 44.378C151.721 44.3558 151.696 44.3281 151.678 44.2964C151.66 44.2648 151.648 44.2298 151.643 44.1936C151.638 44.1574 151.641 44.1205 151.65 44.0852C151.66 44.0499 151.676 44.0168 151.698 43.9878C151.72 43.9587 151.748 43.9344 151.78 43.9161C151.811 43.8978 151.846 43.8859 151.883 43.8811C151.919 43.8763 151.956 43.8787 151.991 43.8881C152.026 43.8976 152.059 43.9139 152.088 43.9361L152.494 44.2478L153.452 42.9973C153.474 42.9682 153.502 42.9439 153.534 42.9256C153.565 42.9073 153.6 42.8955 153.637 42.8907C153.673 42.8859 153.71 42.8883 153.745 42.8978C153.78 42.9073 153.813 42.9236 153.842 42.9458C153.901 42.9908 153.939 43.0572 153.949 43.1303C153.958 43.2035 153.939 43.2775 153.894 43.3361L152.767 44.8071C152.74 44.841 152.707 44.8684 152.669 44.8873C152.63 44.9061 152.588 44.9158 152.545 44.9157V44.915Z" fill="white"/>
<path d="M154.244 55.5856C155.716 55.5856 156.908 54.3922 156.908 52.92C156.908 51.4478 155.716 50.2544 154.244 50.2544C152.772 50.2544 151.58 51.4478 151.58 52.92C151.58 54.3922 152.772 55.5856 154.244 55.5856Z" fill="#D4A017"/>
<path d="M153.98 53.9368C153.92 53.9369 153.862 53.9175 153.814 53.8816L153.811 53.8793L153.184 53.3998C153.155 53.3775 153.131 53.3498 153.113 53.3182C153.095 53.2865 153.083 53.2516 153.078 53.2153C153.073 53.1791 153.075 53.1423 153.085 53.1069C153.094 53.0716 153.111 53.0385 153.133 53.0095C153.155 52.9805 153.183 52.9561 153.214 52.9378C153.246 52.9195 153.281 52.9076 153.317 52.9028C153.353 52.898 153.39 52.9004 153.426 52.9099C153.461 52.9193 153.494 52.9356 153.523 52.9578L153.928 53.2695L154.887 52.019C154.909 51.99 154.937 51.9656 154.968 51.9474C155 51.9291 155.035 51.9172 155.071 51.9124C155.107 51.9076 155.144 51.9101 155.18 51.9195C155.215 51.929 155.248 51.9453 155.277 51.9676C155.335 52.0126 155.374 52.0789 155.383 52.1521C155.393 52.2252 155.373 52.2992 155.328 52.3578L154.201 53.8288C154.175 53.8627 154.141 53.8901 154.103 53.909C154.065 53.9278 154.022 53.9376 153.98 53.9374L153.98 53.9368Z" fill="white"/>
<path d="M173.162 64.5832C173.14 64.5832 173.125 64.5832 173.12 64.5832H173.162V64.1824H173.13C173.193 64.1847 174.485 64.2212 175.674 62.777C177.447 60.6245 178.903 55.2964 175.771 42.1354C171.559 24.4388 175.072 8.80473 176.778 2.90447C176.862 2.61256 176.877 2.30511 176.821 2.00639C176.766 1.70768 176.642 1.4259 176.46 1.1833C176.277 0.940699 176.04 0.743928 175.769 0.608534C175.497 0.473141 175.197 0.402833 174.894 0.403164H134.218C133.909 0.403569 133.604 0.476921 133.329 0.617262C133.053 0.757602 132.815 0.960978 132.632 1.21088C131.91 2.20517 130.919 4.1156 130.298 7.56978L129.902 7.49876C130.536 3.96955 131.56 2.00302 132.308 0.975558C132.527 0.67444 132.815 0.429372 133.147 0.26025C133.479 0.0911279 133.846 0.00271992 134.218 0.00220001H174.894C175.26 0.00164156 175.621 0.0862847 175.948 0.249437C176.276 0.412589 176.561 0.649773 176.781 0.942228C177.002 1.23468 177.151 1.57439 177.217 1.93447C177.283 2.29455 177.265 2.66513 177.163 3.0169C175.467 8.88644 171.972 24.4395 176.162 42.0432C179.338 55.389 177.811 60.8336 175.971 63.0495C174.757 64.509 173.42 64.5832 173.162 64.5832Z" fill="#E6E6E6"/>
<path d="M168.822 72.0433C168.8 72.0433 168.785 72.0433 168.78 72.0433H166.825V71.6425H168.79C168.853 71.6445 170.144 71.6813 171.334 70.237C173.107 68.0846 174.563 62.7565 171.431 49.5955C167.219 31.8989 170.732 16.2648 172.437 10.3646C172.521 10.0726 172.536 9.7652 172.481 9.46648C172.426 9.16777 172.302 8.88599 172.119 8.64339C171.937 8.40078 171.7 8.20402 171.428 8.06862C171.157 7.93323 170.857 7.86292 170.553 7.86325H129.878C129.569 7.86366 129.264 7.93701 128.988 8.07735C128.713 8.21769 128.474 8.42106 128.292 8.67097C127.569 9.66548 126.578 11.5757 125.957 15.0299L125.562 14.9588C126.196 11.4296 127.22 9.4631 127.967 8.43564C128.187 8.13453 128.474 7.88946 128.806 7.72034C129.138 7.55121 129.505 7.4628 129.878 7.46228H170.553C170.919 7.46172 171.28 7.54637 171.608 7.70953C171.935 7.87268 172.221 8.10986 172.441 8.40232C172.661 8.69477 172.81 9.03447 172.877 9.39455C172.943 9.75463 172.925 10.1252 172.823 10.477C171.126 16.3465 167.632 31.8996 171.822 49.5033C174.998 62.8491 173.471 68.2937 171.631 70.5095C170.416 71.9694 169.079 72.0433 168.822 72.0433Z" fill="#CCCCCC"/>
<path d="M165.776 65.6079C160.688 44.2281 164.932 25.3375 166.994 18.2101C167.117 17.7829 167.139 17.3329 167.058 16.8958C166.977 16.4587 166.796 16.0463 166.529 15.6912C166.261 15.3361 165.915 15.048 165.518 14.8496C165.12 14.6512 164.682 14.5479 164.237 14.548H114.836C114.384 14.5483 113.938 14.6553 113.535 14.8603C113.132 15.0653 112.783 15.3626 112.516 15.7279C110.522 18.4715 106.384 27.5692 111.006 52.7423C113.478 66.2095 113.441 75.3914 112.633 81.4399C112.18 84.8462 111.481 87.2569 110.848 88.883L110.781 89.0553C110.648 89.3844 110.578 89.7358 110.576 90.0908C110.572 90.4917 110.652 90.889 110.812 91.2566C110.972 91.6242 111.208 91.9536 111.505 92.2232C111.698 92.4045 111.917 92.5565 112.155 92.6743C112.352 92.7749 112.56 92.8513 112.776 92.9018C112.995 92.9554 113.22 92.9822 113.446 92.9817H162.083C162.089 92.9817 162.106 92.9837 162.134 92.9837C162.446 92.9837 164.071 92.8936 165.545 91.1178C167.779 88.4271 169.634 81.8166 165.776 65.6079ZM165.184 90.7892C163.739 92.5445 162.171 92.4993 162.096 92.4973H113.444C113.055 92.4972 112.671 92.4016 112.327 92.2189C111.983 92.0363 111.689 91.7722 111.47 91.4496C111.278 91.1706 111.149 90.8531 111.092 90.5192C111.035 90.1853 111.052 89.8429 111.14 89.516C111.164 89.4209 111.194 89.3277 111.23 89.237C111.954 87.3772 112.49 85.4498 112.831 83.4835C113.987 77.1785 114.202 67.4491 111.485 52.6552C106.898 27.6687 110.954 18.7083 112.909 16.016C113.131 15.713 113.421 15.4665 113.755 15.2963C114.09 15.1262 114.46 15.0371 114.836 15.0364H164.237C164.606 15.0362 164.969 15.1217 165.299 15.2861C165.629 15.4505 165.916 15.6894 166.138 15.9839C166.36 16.2784 166.51 16.6204 166.577 16.983C166.644 17.3456 166.626 17.7188 166.524 18.0732C164.452 25.2393 160.187 44.2285 165.303 65.721C169.107 81.7037 167.338 88.1748 165.184 90.7892Z" fill="#3F3D56"/>
<path d="M142.307 37.8289H116.855C116.597 37.8316 116.341 37.7832 116.102 37.6863C115.863 37.5895 115.646 37.4461 115.462 37.2646C115.279 37.0831 115.133 36.867 115.034 36.6289C114.935 36.3907 114.883 36.1352 114.883 35.8771C114.883 35.6191 114.935 35.3635 115.034 35.1254C115.133 34.8872 115.279 34.6711 115.462 34.4896C115.646 34.3081 115.863 34.1648 116.102 34.0679C116.341 33.9711 116.597 33.9226 116.855 33.9254H142.307C142.821 33.9309 143.312 34.1389 143.673 34.5044C144.035 34.8698 144.238 35.3631 144.238 35.8771C144.238 36.3912 144.035 36.8845 143.673 37.2499C143.312 37.6153 142.821 37.8234 142.307 37.8289Z" fill="#E6E6E6"/>
<path d="M142.307 46.2357H116.855C116.342 46.2302 115.851 46.0222 115.489 45.6568C115.128 45.2913 114.925 44.798 114.925 44.284C114.925 43.7699 115.128 43.2766 115.489 42.9112C115.851 42.5458 116.342 42.3378 116.855 42.3323H142.307C142.565 42.3295 142.821 42.378 143.06 42.4748C143.3 42.5716 143.517 42.715 143.7 42.8965C143.884 43.078 144.029 43.2941 144.129 43.5322C144.228 43.7704 144.279 44.0259 144.279 44.284C144.279 44.5421 144.228 44.7976 144.129 45.0357C144.029 45.2739 143.884 45.49 143.7 45.6715C143.517 45.853 143.3 45.9963 143.06 46.0932C142.821 46.19 142.565 46.2385 142.307 46.2357Z" fill="#E6E6E6"/>
<path d="M144.357 54.8474H118.905C118.647 54.8502 118.391 54.8017 118.152 54.7049C117.913 54.608 117.695 54.4647 117.512 54.2832C117.328 54.1017 117.183 53.8856 117.084 53.6474C116.984 53.4093 116.933 53.1538 116.933 52.8957C116.933 52.6376 116.984 52.3821 117.084 52.1439C117.183 51.9058 117.328 51.6897 117.512 51.5082C117.695 51.3267 117.913 51.1833 118.152 51.0865C118.391 50.9896 118.647 50.9412 118.905 50.944H144.357C144.615 50.9412 144.871 50.9896 145.11 51.0865C145.349 51.1833 145.567 51.3267 145.75 51.5082C145.933 51.6897 146.079 51.9058 146.178 52.1439C146.278 52.3821 146.329 52.6376 146.329 52.8957C146.329 53.1538 146.278 53.4093 146.178 53.6474C146.079 53.8856 145.933 54.1017 145.75 54.2832C145.567 54.4647 145.349 54.608 145.11 54.7049C144.871 54.8017 144.615 54.8502 144.357 54.8474Z" fill="#E6E6E6"/>
<path d="M145.792 63.8691H120.339C120.082 63.8719 119.826 63.8234 119.587 63.7266C119.347 63.6298 119.13 63.4864 118.946 63.3049C118.763 63.1234 118.618 62.9073 118.518 62.6692C118.419 62.431 118.368 62.1755 118.368 61.9174C118.368 61.6593 118.419 61.4038 118.518 61.1657C118.618 60.9275 118.763 60.7114 118.946 60.5299C119.13 60.3484 119.347 60.2051 119.587 60.1082C119.826 60.0114 120.082 59.9629 120.339 59.9657H145.792C146.05 59.9629 146.306 60.0114 146.545 60.1082C146.784 60.2051 147.001 60.3484 147.185 60.5299C147.368 60.7114 147.514 60.9275 147.613 61.1657C147.712 61.4038 147.763 61.6593 147.763 61.9174C147.763 62.1755 147.712 62.431 147.613 62.6692C147.514 62.9073 147.368 63.1234 147.185 63.3049C147.001 63.4864 146.784 63.6298 146.545 63.7266C146.306 63.8234 146.05 63.8719 145.792 63.8691Z" fill="#E6E6E6"/>
<path d="M145.802 22.6742H127.513C126.999 22.6687 126.508 22.4607 126.147 22.0953C125.785 21.7298 125.583 21.2365 125.583 20.7225C125.583 20.2084 125.785 19.7151 126.147 19.3497C126.508 18.9843 126.999 18.7762 127.513 18.7708H145.802C146.316 18.7762 146.807 18.9843 147.168 19.3497C147.53 19.7151 147.732 20.2084 147.732 20.7225C147.732 21.2365 147.53 21.7298 147.168 22.0953C146.807 22.4607 146.316 22.6687 145.802 22.6742Z" fill="#D4A017"/>
<path d="M155.884 64.5833C157.355 64.5833 158.548 63.3899 158.548 61.9177C158.548 60.4455 157.355 59.2521 155.884 59.2521C154.412 59.2521 153.219 60.4455 153.219 61.9177C153.219 63.3899 154.412 64.5833 155.884 64.5833Z" fill="#E6E6E6"/>
<path d="M147.021 72.6863H121.569C121.311 72.689 121.055 72.6406 120.816 72.5437C120.577 72.4469 120.36 72.3036 120.176 72.1221C119.993 71.9406 119.847 71.7245 119.748 71.4863C119.649 71.2481 119.597 70.9926 119.597 70.7345C119.597 70.4765 119.649 70.221 119.748 69.9828C119.847 69.7446 119.993 69.5285 120.176 69.347C120.36 69.1655 120.577 69.0222 120.816 68.9254C121.055 68.8285 121.311 68.7801 121.569 68.7828H147.021C147.535 68.7883 148.026 68.9964 148.387 69.3618C148.749 69.7272 148.951 70.2205 148.951 70.7345C148.951 71.2486 148.749 71.7419 148.387 72.1073C148.026 72.4727 147.535 72.6808 147.021 72.6863Z" fill="#E6E6E6"/>
<path d="M157.113 73.4001C158.585 73.4001 159.778 72.2066 159.778 70.7345C159.778 69.2623 158.585 68.0688 157.113 68.0688C155.642 68.0688 154.449 69.2623 154.449 70.7345C154.449 72.2066 155.642 73.4001 157.113 73.4001Z" fill="#E6E6E6"/>
</g>
<defs>
<clipPath id="clip0_286_209">
<rect width="178" height="172" fill="white"/>
</clipPath>
</defs>
</svg>
