<svg width="329" height="24" viewBox="0 0 329 24" fill="none" xmlns="http://www.w3.org/2000/svg">
<g clip-path="url(#clip0_362_1299)">
<path d="M124.5 2C118.977 2 114.5 6.477 114.5 12C114.5 17.523 118.977 22 124.5 22C130.023 22 134.5 17.523 134.5 12C134.5 6.477 130.023 2 124.5 2ZM125.5 19.9305V14H128V12H125.5V10.5C125.5 9.9485 125.948 9.5 126.5 9.5H128V7.5H126.5C124.845 7.5 123.5 8.8455 123.5 10.5V12H121V14H123.5V19.9305C119.56 19.436 116.5 16.072 116.5 12C116.5 7.5885 120.089 4 124.5 4C128.911 4 132.5 7.5885 132.5 12C132.5 16.072 129.44 19.436 125.5 19.9305Z" fill="#2B2B2B"/>
</g>
<g clip-path="url(#clip1_362_1299)">
<path d="M161.469 21.7455H161.396C158.452 21.7295 156.014 20.7395 154.705 19.03C154.653 18.9604 154.604 18.8886 154.558 18.815L154.517 18.7525C154.414 18.6023 154.354 18.4268 154.343 18.245C154.332 18.0631 154.372 17.8818 154.457 17.7206C154.541 17.5594 154.669 17.4245 154.825 17.3304C154.981 17.2362 155.159 17.1865 155.342 17.1865C156.208 17.1865 157.961 16.834 159.742 15.617C154.021 11.863 154.471 6.823 155.606 4.5525C155.677 4.41089 155.78 4.28817 155.908 4.19441C156.035 4.10066 156.184 4.03856 156.34 4.01322C156.496 3.98789 156.656 4.00004 156.807 4.04868C156.958 4.09732 157.095 4.18105 157.207 4.293C159.589 6.674 162.381 7.482 163.574 7.6375C163.985 5.29 166.037 3.5 168.5 3.5C169.469 3.5 170.394 3.774 171.202 4.2965L173.757 3.99C173.933 3.96899 174.111 3.99525 174.274 4.0661C174.437 4.13694 174.578 4.24981 174.683 4.39313C174.787 4.53644 174.852 4.70505 174.87 4.88164C174.888 5.05823 174.859 5.23644 174.786 5.398L173.5 8.2175V8.5C173.5 13.431 172.023 17.0625 169.108 19.294C167.071 20.854 164.29 21.7455 161.469 21.7455ZM157.525 18.848C158.532 19.415 159.887 19.737 161.407 19.7455H161.466C163.824 19.7455 166.222 18.985 167.893 17.706C170.286 15.873 171.5 12.7755 171.5 8.5V8C171.5 7.857 171.531 7.7155 171.591 7.585L172.228 6.1875L171.059 6.3275C170.798 6.35932 170.536 6.28708 170.329 6.1265C169.806 5.71973 169.162 5.49923 168.5 5.5C166.846 5.5 165.5 6.8455 165.5 8.5C165.5 8.9525 165.225 9.348 164.782 9.531C163.676 9.99 160.055 9.198 156.979 6.762C156.62 8.888 157.372 12.141 161.974 14.6195C162.115 14.6952 162.236 14.8038 162.326 14.936C162.417 15.0683 162.474 15.2203 162.493 15.3794C162.513 15.5384 162.494 15.6997 162.437 15.8498C162.381 15.9998 162.29 16.1342 162.171 16.2415C160.647 17.622 158.97 18.4375 157.525 18.848Z" fill="#2B2B2B"/>
</g>
<g clip-path="url(#clip2_362_1299)">
<path d="M210.51 4C211.037 4.00066 211.543 4.21059 211.916 4.58373C212.289 4.95688 212.499 5.46279 212.5 5.9905V18.0095C212.499 18.5372 212.289 19.0431 211.916 19.4163C211.543 19.7894 211.037 19.9993 210.51 20H198.49C197.963 19.9993 197.457 19.7894 197.084 19.4163C196.711 19.0431 196.501 18.5372 196.5 18.0095V5.9905C196.501 5.46279 196.711 4.95688 197.084 4.58373C197.457 4.21059 197.963 4.00066 198.49 4H210.51ZM210.51 2H198.49C197.966 1.99993 197.448 2.10311 196.963 2.30362C196.479 2.50414 196.039 2.79808 195.669 3.16864C195.298 3.53921 195.004 3.97914 194.804 4.46332C194.603 4.9475 194.5 5.46644 194.5 5.9905V18.0095C194.5 18.5336 194.603 19.0525 194.804 19.5367C195.004 20.0209 195.298 20.4608 195.669 20.8314C196.039 21.2019 196.479 21.4959 196.963 21.6964C197.448 21.8969 197.966 22.0001 198.49 22H210.51C211.034 22.0001 211.552 21.8969 212.037 21.6964C212.521 21.4959 212.961 21.2019 213.331 20.8314C213.702 20.4608 213.996 20.0209 214.196 19.5367C214.397 19.0525 214.5 18.5336 214.5 18.0095V5.9905C214.5 5.46644 214.397 4.9475 214.196 4.46332C213.996 3.97914 213.702 3.53921 213.331 3.16864C212.961 2.79808 212.521 2.50414 212.037 2.30362C211.552 2.10311 211.034 1.99993 210.51 2Z" fill="#2B2B2B"/>
<path d="M204.5 17C201.743 17 199.5 14.757 199.5 12C199.5 9.243 201.743 7 204.5 7C207.257 7 209.5 9.243 209.5 12C209.5 14.757 207.257 17 204.5 17ZM204.5 9C202.845 9 201.5 10.3455 201.5 12C201.5 13.6545 202.845 15 204.5 15C206.155 15 207.5 13.6545 207.5 12C207.5 10.3455 206.155 9 204.5 9Z" fill="#2B2B2B"/>
<path d="M210 7.5C210.552 7.5 211 7.05228 211 6.5C211 5.94772 210.552 5.5 210 5.5C209.448 5.5 209 5.94772 209 6.5C209 7.05228 209.448 7.5 210 7.5Z" fill="#2B2B2B"/>
</g>
<defs>
<clipPath id="clip0_362_1299">
<rect width="24" height="24" fill="white" transform="translate(112.5)"/>
</clipPath>
<clipPath id="clip1_362_1299">
<rect width="24" height="24" fill="white" transform="translate(152.5)"/>
</clipPath>
<clipPath id="clip2_362_1299">
<rect width="24" height="24" fill="white" transform="translate(192.5)"/>
</clipPath>
</defs>
</svg>
